<svg width="20" height="20" viewBox="0 0 20 20" fill="none" xmlns="http://www.w3.org/2000/svg">
<path d="M18.5685 8.13339L17.7362 7.50006C17.8444 7.11672 17.9359 6.79172 18.0191 6.50839C18.3521 5.39172 18.5352 4.77506 18.0774 4.14172C17.6196 3.50839 16.9954 3.48339 15.8136 3.45006H14.7815C14.64 3.08339 14.5318 2.75839 14.432 2.47506C14.0491 1.37506 13.8327 0.808391 13.092 0.533391C12.3512 0.258391 11.8186 0.650057 10.8531 1.31672L10.0208 1.89172L9.18851 1.33339C8.32293 0.658391 7.69039 0.241724 6.933 0.491724C6.17561 0.741724 5.97586 1.32506 5.58469 2.43339C5.48481 2.70839 5.37661 3.03339 5.23512 3.40006L4.16146 3.44172C2.99625 3.44172 2.35539 3.48339 1.89763 4.11672C1.43987 4.75006 1.66459 5.36672 1.98086 6.49172C2.06409 6.77506 2.16396 7.10006 2.26384 7.48339L1.43154 8.11672C0.532668 8.81672 0 9.20839 0 10.0001C0 10.7917 0.507699 11.1751 1.43154 11.8834L2.26384 12.5167C2.16396 12.9001 2.06409 13.2251 1.98086 13.5084C1.64794 14.6251 1.46484 15.2417 1.9226 15.8751C2.38036 16.5084 3.02955 16.5251 4.18643 16.5584H5.21015C5.35164 16.9251 5.45984 17.2501 5.55972 17.5334C5.94257 18.6334 6.15897 19.2001 6.90803 19.4834C7.6571 19.7667 8.18144 19.3584 9.1469 18.7001L9.97919 18.1251L10.8115 18.6834C11.3248 19.1333 11.9584 19.423 12.6342 19.5167C12.7843 19.5152 12.9332 19.4899 13.0753 19.4417C13.8244 19.2001 14.0325 18.6084 14.4236 17.5001C14.5235 17.2251 14.6317 16.9001 14.7732 16.5251H15.8052C16.9705 16.5251 17.6113 16.4834 18.0691 15.8501C18.5268 15.2167 18.3521 14.6001 18.0191 13.4834C17.9359 13.2001 17.836 12.8751 17.7362 12.4917L18.5685 11.8584C19.484 11.1917 19.975 10.8334 19.975 10.0001C19.975 9.16672 19.4923 8.84172 18.5685 8.13339Z" fill="#2DB674"/>
<path d="M8.63919 14.3832C8.52667 14.3785 8.41628 14.3509 8.31471 14.3022C8.21313 14.2535 8.12249 14.1847 8.04826 14.0999L5.58467 11.3582C5.43788 11.1925 5.36287 10.9751 5.37614 10.754C5.3894 10.5328 5.48986 10.326 5.65542 10.1791C5.82097 10.0321 6.03806 9.95698 6.25892 9.97026C6.47978 9.98355 6.68632 10.0841 6.83311 10.2499L8.6808 12.3416L13.9409 7.20822C14.019 7.13162 14.1115 7.07118 14.213 7.03035C14.3145 6.98952 14.423 6.9691 14.5323 6.97026C14.6417 6.97142 14.7497 6.99414 14.8503 7.03711C14.9509 7.08009 15.0421 7.14248 15.1186 7.22073C15.1951 7.29897 15.2555 7.39154 15.2962 7.49314C15.337 7.59475 15.3574 7.7034 15.3563 7.8129C15.3551 7.92239 15.3324 8.03059 15.2895 8.1313C15.2466 8.23202 15.1843 8.32329 15.1061 8.39989L9.22179 14.1666C9.06282 14.3114 8.85405 14.389 8.63919 14.3832Z" fill="white"/>
</svg>
