<svg width="310" height="310" viewBox="0 0 310 310" fill="none" xmlns="http://www.w3.org/2000/svg">
<path d="M300.24 112.241L300.275 112.23C296.118 102.519 297.119 85.2027 292.55 76.6358L292.571 76.6609C287.844 68.5171 273.406 56.1671 277.383 49.4685L277.446 49.2928H277.496C280.86 42.5153 313.498 -6.37586 281.367 6.59101C271.578 10.5499 263.04 52.3623 260.511 44.4553C257.105 33.787 258.968 17.1589 259.024 16.725C260.159 8.73542 260.007 0.857047 250.683 0C243.861 0.476934 241.804 4.2673 239.803 18.0446C237.32 35.3111 241.55 39.4457 241.846 44.7924C210.071 58.48 170.268 107.992 150.539 108.404C116.175 108.318 74.6042 107.281 56.5944 108.956C-25.5012 117.276 0.750922 246.876 18.6973 297.241C21.4906 305.672 23.3328 306.432 32.4768 309.197C64.8297 308.659 48.6339 298.711 39.4863 277.604C24.3085 242.587 45.6751 207.947 73.301 187.543C97.8483 211.067 131.194 220.613 164.372 218.759C162.748 244.907 166.031 272.986 176.231 296.976C181.751 313.6 214.766 315.067 202.24 296.976C191.561 281.735 191.159 233.913 196.788 217.095C199.292 204.766 255.548 126.868 253.072 124.229C263.322 135.188 288.577 161.838 304.364 147.853C308.313 144.357 309.88 139.91 310 134.481C309.123 126.108 303.582 120.797 300.24 112.241Z" fill="url(#paint0_linear_2432_84)"/>
<defs>
<linearGradient id="paint0_linear_2432_84" x1="82.6667" y1="-5.16667" x2="191.393" y2="343.169" gradientUnits="userSpaceOnUse">
<stop stop-color="#177348"/>
<stop offset="1" stop-color="#64D550"/>
</linearGradient>
</defs>
</svg>
